<svg width="24" height="24" viewBox="0 0 24 24" fill="none" xmlns="http://www.w3.org/2000/svg">
  <g transform="translate(0, 0) scale(0.12)">
    <path d="M 100 28 C 78 28, 60 38, 54 56 C 50 70, 50 86, 52 100 C 52 116, 56 130, 62 142 C 66 150, 72 156, 78 158 L 78 150 C 76 140, 76 130, 78 120 C 74 110, 72 96, 74 84 C 78 76, 86 72, 100 72 C 114 72, 122 76, 126 84 C 128 96, 126 110, 122 120 C 124 130, 124 140, 122 150 L 122 158 C 128 156, 134 150, 138 142 C 144 130, 148 116, 148 100 C 150 86, 150 70, 146 56 C 140 38, 122 28, 100 28 Z" fill="#FAF9F6"/>
  </g>
</svg>
